%TF.GenerationSoftware,KiCad,Pcbnew,8.0.2*%
%TF.CreationDate,2024-07-08T22:06:34-05:00*%
%TF.ProjectId,RGBPS Breakout,52474250-5320-4427-9265-616b6f75742e,rev?*%
%TF.SameCoordinates,Original*%
%TF.FileFunction,Legend,Top*%
%TF.FilePolarity,Positive*%
%FSLAX46Y46*%
G04 Gerber Fmt 4.6, Leading zero omitted, Abs format (unit mm)*
G04 Created by KiCad (PCBNEW 8.0.2) date 2024-07-08 22:06:34*
%MOMM*%
%LPD*%
G01*
G04 APERTURE LIST*
%ADD10C,0.200000*%
%ADD11C,0.150000*%
%ADD12C,0.120000*%
%ADD13C,0.100000*%
G04 APERTURE END LIST*
D10*
X133167219Y-86030326D02*
X132167219Y-86030326D01*
X132262457Y-85601755D02*
X132214838Y-85554136D01*
X132214838Y-85554136D02*
X132167219Y-85458898D01*
X132167219Y-85458898D02*
X132167219Y-85220803D01*
X132167219Y-85220803D02*
X132214838Y-85125565D01*
X132214838Y-85125565D02*
X132262457Y-85077946D01*
X132262457Y-85077946D02*
X132357695Y-85030327D01*
X132357695Y-85030327D02*
X132452933Y-85030327D01*
X132452933Y-85030327D02*
X132595790Y-85077946D01*
X132595790Y-85077946D02*
X133167219Y-85649374D01*
X133167219Y-85649374D02*
X133167219Y-85030327D01*
X133071980Y-84030327D02*
X133119600Y-84077946D01*
X133119600Y-84077946D02*
X133167219Y-84220803D01*
X133167219Y-84220803D02*
X133167219Y-84316041D01*
X133167219Y-84316041D02*
X133119600Y-84458898D01*
X133119600Y-84458898D02*
X133024361Y-84554136D01*
X133024361Y-84554136D02*
X132929123Y-84601755D01*
X132929123Y-84601755D02*
X132738647Y-84649374D01*
X132738647Y-84649374D02*
X132595790Y-84649374D01*
X132595790Y-84649374D02*
X132405314Y-84601755D01*
X132405314Y-84601755D02*
X132310076Y-84554136D01*
X132310076Y-84554136D02*
X132214838Y-84458898D01*
X132214838Y-84458898D02*
X132167219Y-84316041D01*
X132167219Y-84316041D02*
X132167219Y-84220803D01*
X132167219Y-84220803D02*
X132214838Y-84077946D01*
X132214838Y-84077946D02*
X132262457Y-84030327D01*
D11*
X138383333Y-82554819D02*
X138050000Y-82078628D01*
X137811905Y-82554819D02*
X137811905Y-81554819D01*
X137811905Y-81554819D02*
X138192857Y-81554819D01*
X138192857Y-81554819D02*
X138288095Y-81602438D01*
X138288095Y-81602438D02*
X138335714Y-81650057D01*
X138335714Y-81650057D02*
X138383333Y-81745295D01*
X138383333Y-81745295D02*
X138383333Y-81888152D01*
X138383333Y-81888152D02*
X138335714Y-81983390D01*
X138335714Y-81983390D02*
X138288095Y-82031009D01*
X138288095Y-82031009D02*
X138192857Y-82078628D01*
X138192857Y-82078628D02*
X137811905Y-82078628D01*
X138716667Y-81554819D02*
X139335714Y-81554819D01*
X139335714Y-81554819D02*
X139002381Y-81935771D01*
X139002381Y-81935771D02*
X139145238Y-81935771D01*
X139145238Y-81935771D02*
X139240476Y-81983390D01*
X139240476Y-81983390D02*
X139288095Y-82031009D01*
X139288095Y-82031009D02*
X139335714Y-82126247D01*
X139335714Y-82126247D02*
X139335714Y-82364342D01*
X139335714Y-82364342D02*
X139288095Y-82459580D01*
X139288095Y-82459580D02*
X139240476Y-82507200D01*
X139240476Y-82507200D02*
X139145238Y-82554819D01*
X139145238Y-82554819D02*
X138859524Y-82554819D01*
X138859524Y-82554819D02*
X138764286Y-82507200D01*
X138764286Y-82507200D02*
X138716667Y-82459580D01*
X140333333Y-87324819D02*
X140000000Y-86848628D01*
X139761905Y-87324819D02*
X139761905Y-86324819D01*
X139761905Y-86324819D02*
X140142857Y-86324819D01*
X140142857Y-86324819D02*
X140238095Y-86372438D01*
X140238095Y-86372438D02*
X140285714Y-86420057D01*
X140285714Y-86420057D02*
X140333333Y-86515295D01*
X140333333Y-86515295D02*
X140333333Y-86658152D01*
X140333333Y-86658152D02*
X140285714Y-86753390D01*
X140285714Y-86753390D02*
X140238095Y-86801009D01*
X140238095Y-86801009D02*
X140142857Y-86848628D01*
X140142857Y-86848628D02*
X139761905Y-86848628D01*
X141238095Y-86324819D02*
X140761905Y-86324819D01*
X140761905Y-86324819D02*
X140714286Y-86801009D01*
X140714286Y-86801009D02*
X140761905Y-86753390D01*
X140761905Y-86753390D02*
X140857143Y-86705771D01*
X140857143Y-86705771D02*
X141095238Y-86705771D01*
X141095238Y-86705771D02*
X141190476Y-86753390D01*
X141190476Y-86753390D02*
X141238095Y-86801009D01*
X141238095Y-86801009D02*
X141285714Y-86896247D01*
X141285714Y-86896247D02*
X141285714Y-87134342D01*
X141285714Y-87134342D02*
X141238095Y-87229580D01*
X141238095Y-87229580D02*
X141190476Y-87277200D01*
X141190476Y-87277200D02*
X141095238Y-87324819D01*
X141095238Y-87324819D02*
X140857143Y-87324819D01*
X140857143Y-87324819D02*
X140761905Y-87277200D01*
X140761905Y-87277200D02*
X140714286Y-87229580D01*
X144311905Y-82134819D02*
X144311905Y-81134819D01*
X144311905Y-81134819D02*
X144550000Y-81134819D01*
X144550000Y-81134819D02*
X144692857Y-81182438D01*
X144692857Y-81182438D02*
X144788095Y-81277676D01*
X144788095Y-81277676D02*
X144835714Y-81372914D01*
X144835714Y-81372914D02*
X144883333Y-81563390D01*
X144883333Y-81563390D02*
X144883333Y-81706247D01*
X144883333Y-81706247D02*
X144835714Y-81896723D01*
X144835714Y-81896723D02*
X144788095Y-81991961D01*
X144788095Y-81991961D02*
X144692857Y-82087200D01*
X144692857Y-82087200D02*
X144550000Y-82134819D01*
X144550000Y-82134819D02*
X144311905Y-82134819D01*
X145835714Y-82134819D02*
X145264286Y-82134819D01*
X145550000Y-82134819D02*
X145550000Y-81134819D01*
X145550000Y-81134819D02*
X145454762Y-81277676D01*
X145454762Y-81277676D02*
X145359524Y-81372914D01*
X145359524Y-81372914D02*
X145264286Y-81420533D01*
X136413333Y-88434819D02*
X136080000Y-87958628D01*
X135841905Y-88434819D02*
X135841905Y-87434819D01*
X135841905Y-87434819D02*
X136222857Y-87434819D01*
X136222857Y-87434819D02*
X136318095Y-87482438D01*
X136318095Y-87482438D02*
X136365714Y-87530057D01*
X136365714Y-87530057D02*
X136413333Y-87625295D01*
X136413333Y-87625295D02*
X136413333Y-87768152D01*
X136413333Y-87768152D02*
X136365714Y-87863390D01*
X136365714Y-87863390D02*
X136318095Y-87911009D01*
X136318095Y-87911009D02*
X136222857Y-87958628D01*
X136222857Y-87958628D02*
X135841905Y-87958628D01*
X137270476Y-87768152D02*
X137270476Y-88434819D01*
X137032381Y-87387200D02*
X136794286Y-88101485D01*
X136794286Y-88101485D02*
X137413333Y-88101485D01*
X143003333Y-89454819D02*
X142670000Y-88978628D01*
X142431905Y-89454819D02*
X142431905Y-88454819D01*
X142431905Y-88454819D02*
X142812857Y-88454819D01*
X142812857Y-88454819D02*
X142908095Y-88502438D01*
X142908095Y-88502438D02*
X142955714Y-88550057D01*
X142955714Y-88550057D02*
X143003333Y-88645295D01*
X143003333Y-88645295D02*
X143003333Y-88788152D01*
X143003333Y-88788152D02*
X142955714Y-88883390D01*
X142955714Y-88883390D02*
X142908095Y-88931009D01*
X142908095Y-88931009D02*
X142812857Y-88978628D01*
X142812857Y-88978628D02*
X142431905Y-88978628D01*
X143384286Y-88550057D02*
X143431905Y-88502438D01*
X143431905Y-88502438D02*
X143527143Y-88454819D01*
X143527143Y-88454819D02*
X143765238Y-88454819D01*
X143765238Y-88454819D02*
X143860476Y-88502438D01*
X143860476Y-88502438D02*
X143908095Y-88550057D01*
X143908095Y-88550057D02*
X143955714Y-88645295D01*
X143955714Y-88645295D02*
X143955714Y-88740533D01*
X143955714Y-88740533D02*
X143908095Y-88883390D01*
X143908095Y-88883390D02*
X143336667Y-89454819D01*
X143336667Y-89454819D02*
X143955714Y-89454819D01*
X142233333Y-82459580D02*
X142185714Y-82507200D01*
X142185714Y-82507200D02*
X142042857Y-82554819D01*
X142042857Y-82554819D02*
X141947619Y-82554819D01*
X141947619Y-82554819D02*
X141804762Y-82507200D01*
X141804762Y-82507200D02*
X141709524Y-82411961D01*
X141709524Y-82411961D02*
X141661905Y-82316723D01*
X141661905Y-82316723D02*
X141614286Y-82126247D01*
X141614286Y-82126247D02*
X141614286Y-81983390D01*
X141614286Y-81983390D02*
X141661905Y-81792914D01*
X141661905Y-81792914D02*
X141709524Y-81697676D01*
X141709524Y-81697676D02*
X141804762Y-81602438D01*
X141804762Y-81602438D02*
X141947619Y-81554819D01*
X141947619Y-81554819D02*
X142042857Y-81554819D01*
X142042857Y-81554819D02*
X142185714Y-81602438D01*
X142185714Y-81602438D02*
X142233333Y-81650057D01*
X142614286Y-81650057D02*
X142661905Y-81602438D01*
X142661905Y-81602438D02*
X142757143Y-81554819D01*
X142757143Y-81554819D02*
X142995238Y-81554819D01*
X142995238Y-81554819D02*
X143090476Y-81602438D01*
X143090476Y-81602438D02*
X143138095Y-81650057D01*
X143138095Y-81650057D02*
X143185714Y-81745295D01*
X143185714Y-81745295D02*
X143185714Y-81840533D01*
X143185714Y-81840533D02*
X143138095Y-81983390D01*
X143138095Y-81983390D02*
X142566667Y-82554819D01*
X142566667Y-82554819D02*
X143185714Y-82554819D01*
X145033333Y-89454819D02*
X144700000Y-88978628D01*
X144461905Y-89454819D02*
X144461905Y-88454819D01*
X144461905Y-88454819D02*
X144842857Y-88454819D01*
X144842857Y-88454819D02*
X144938095Y-88502438D01*
X144938095Y-88502438D02*
X144985714Y-88550057D01*
X144985714Y-88550057D02*
X145033333Y-88645295D01*
X145033333Y-88645295D02*
X145033333Y-88788152D01*
X145033333Y-88788152D02*
X144985714Y-88883390D01*
X144985714Y-88883390D02*
X144938095Y-88931009D01*
X144938095Y-88931009D02*
X144842857Y-88978628D01*
X144842857Y-88978628D02*
X144461905Y-88978628D01*
X145985714Y-89454819D02*
X145414286Y-89454819D01*
X145700000Y-89454819D02*
X145700000Y-88454819D01*
X145700000Y-88454819D02*
X145604762Y-88597676D01*
X145604762Y-88597676D02*
X145509524Y-88692914D01*
X145509524Y-88692914D02*
X145414286Y-88740533D01*
X142459580Y-85666666D02*
X142507200Y-85714285D01*
X142507200Y-85714285D02*
X142554819Y-85857142D01*
X142554819Y-85857142D02*
X142554819Y-85952380D01*
X142554819Y-85952380D02*
X142507200Y-86095237D01*
X142507200Y-86095237D02*
X142411961Y-86190475D01*
X142411961Y-86190475D02*
X142316723Y-86238094D01*
X142316723Y-86238094D02*
X142126247Y-86285713D01*
X142126247Y-86285713D02*
X141983390Y-86285713D01*
X141983390Y-86285713D02*
X141792914Y-86238094D01*
X141792914Y-86238094D02*
X141697676Y-86190475D01*
X141697676Y-86190475D02*
X141602438Y-86095237D01*
X141602438Y-86095237D02*
X141554819Y-85952380D01*
X141554819Y-85952380D02*
X141554819Y-85857142D01*
X141554819Y-85857142D02*
X141602438Y-85714285D01*
X141602438Y-85714285D02*
X141650057Y-85666666D01*
X142554819Y-84714285D02*
X142554819Y-85285713D01*
X142554819Y-84999999D02*
X141554819Y-84999999D01*
X141554819Y-84999999D02*
X141697676Y-85095237D01*
X141697676Y-85095237D02*
X141792914Y-85190475D01*
X141792914Y-85190475D02*
X141840533Y-85285713D01*
D12*
%TO.C,J1*%
X129000000Y-87500000D02*
X127000000Y-87500000D01*
X132460000Y-90060000D02*
X132460000Y-89140000D01*
X132460000Y-89140000D02*
X130860000Y-89140000D01*
X132460000Y-80860000D02*
X132460000Y-79940000D01*
X132460000Y-79940000D02*
X130000000Y-79940000D01*
X130860000Y-90060000D02*
X130860000Y-89140000D01*
X130860000Y-89140000D02*
X130860000Y-88860000D01*
X130860000Y-81140000D02*
X132075000Y-81140000D01*
X130860000Y-81140000D02*
X130860000Y-80860000D01*
X130860000Y-80860000D02*
X132460000Y-80860000D01*
X130860000Y-79940000D02*
X130860000Y-80860000D01*
X129000000Y-82500000D02*
X129000000Y-87500000D01*
X128500000Y-88300000D02*
X128500000Y-89300000D01*
X128500000Y-81700000D02*
X128500000Y-80700000D01*
X127500000Y-88300000D02*
X128500000Y-88300000D01*
X127500000Y-81700000D02*
X128500000Y-81700000D01*
X130000000Y-90000000D02*
X132460000Y-90060000D01*
X127000000Y-82500000D02*
X129000000Y-82500000D01*
D13*
%TO.C,IC1*%
X139040000Y-84070000D02*
G75*
G02*
X139040000Y-84170000I0J-50000D01*
G01*
X139040000Y-84170000D02*
G75*
G02*
X139040000Y-84070000I0J50000D01*
G01*
X139040000Y-84070000D02*
X139040000Y-84070000D01*
X139040000Y-84170000D02*
X139040000Y-84170000D01*
D12*
%TO.C,R3*%
X137913641Y-82710000D02*
X137606359Y-82710000D01*
X137913641Y-83470000D02*
X137606359Y-83470000D01*
%TO.C,R5*%
X140356359Y-87600000D02*
X140663641Y-87600000D01*
X140356359Y-88360000D02*
X140663641Y-88360000D01*
%TO.C,D1*%
X146135000Y-86885000D02*
X146135000Y-83000000D01*
X143865000Y-86885000D02*
X146135000Y-86885000D01*
X143865000Y-83000000D02*
X143865000Y-86885000D01*
%TO.C,R4*%
X138673641Y-87590000D02*
X138366359Y-87590000D01*
X138673641Y-88350000D02*
X138366359Y-88350000D01*
%TO.C,R2*%
X143520000Y-87356359D02*
X143520000Y-87663641D01*
X142760000Y-87356359D02*
X142760000Y-87663641D01*
%TO.C,C2*%
X141280000Y-82492164D02*
X141280000Y-82707836D01*
X140560000Y-82492164D02*
X140560000Y-82707836D01*
%TO.C,J2*%
X133620000Y-81370000D02*
X134950000Y-81370000D01*
X133620000Y-82700000D02*
X133620000Y-81370000D01*
X133620000Y-83970000D02*
X133620000Y-84030000D01*
X133620000Y-83970000D02*
X136280000Y-83970000D01*
X133620000Y-84030000D02*
X136280000Y-84030000D01*
X136280000Y-83970000D02*
X136280000Y-84030000D01*
%TO.C,R1*%
X145203641Y-87160000D02*
X144896359Y-87160000D01*
X145203641Y-87920000D02*
X144896359Y-87920000D01*
%TO.C,C1*%
X143500000Y-85607836D02*
X143500000Y-85392164D01*
X142780000Y-85607836D02*
X142780000Y-85392164D01*
%TD*%
M02*
