%TF.GenerationSoftware,KiCad,Pcbnew,8.0.2*%
%TF.CreationDate,2024-07-08T22:06:34-05:00*%
%TF.ProjectId,RGBPS Breakout,52474250-5320-4427-9265-616b6f75742e,rev?*%
%TF.SameCoordinates,Original*%
%TF.FileFunction,Legend,Bot*%
%TF.FilePolarity,Positive*%
%FSLAX46Y46*%
G04 Gerber Fmt 4.6, Leading zero omitted, Abs format (unit mm)*
G04 Created by KiCad (PCBNEW 8.0.2) date 2024-07-08 22:06:34*
%MOMM*%
%LPD*%
G01*
G04 APERTURE LIST*
%ADD10C,0.100000*%
G04 APERTURE END LIST*
D10*
X135796115Y-85372419D02*
X135796115Y-84372419D01*
X135319925Y-85372419D02*
X135319925Y-84372419D01*
X135319925Y-84372419D02*
X134748497Y-85372419D01*
X134748497Y-85372419D02*
X134748497Y-84372419D01*
X134415163Y-84372419D02*
X133843735Y-84372419D01*
X134129449Y-85372419D02*
X134129449Y-84372419D01*
X129072306Y-82520038D02*
X129167544Y-82472419D01*
X129167544Y-82472419D02*
X129310401Y-82472419D01*
X129310401Y-82472419D02*
X129453258Y-82520038D01*
X129453258Y-82520038D02*
X129548496Y-82615276D01*
X129548496Y-82615276D02*
X129596115Y-82710514D01*
X129596115Y-82710514D02*
X129643734Y-82900990D01*
X129643734Y-82900990D02*
X129643734Y-83043847D01*
X129643734Y-83043847D02*
X129596115Y-83234323D01*
X129596115Y-83234323D02*
X129548496Y-83329561D01*
X129548496Y-83329561D02*
X129453258Y-83424800D01*
X129453258Y-83424800D02*
X129310401Y-83472419D01*
X129310401Y-83472419D02*
X129215163Y-83472419D01*
X129215163Y-83472419D02*
X129072306Y-83424800D01*
X129072306Y-83424800D02*
X129024687Y-83377180D01*
X129024687Y-83377180D02*
X129024687Y-83043847D01*
X129024687Y-83043847D02*
X129215163Y-83043847D01*
X128596115Y-83472419D02*
X128596115Y-82472419D01*
X128596115Y-82472419D02*
X128024687Y-83472419D01*
X128024687Y-83472419D02*
X128024687Y-82472419D01*
X127548496Y-83472419D02*
X127548496Y-82472419D01*
X127548496Y-82472419D02*
X127310401Y-82472419D01*
X127310401Y-82472419D02*
X127167544Y-82520038D01*
X127167544Y-82520038D02*
X127072306Y-82615276D01*
X127072306Y-82615276D02*
X127024687Y-82710514D01*
X127024687Y-82710514D02*
X126977068Y-82900990D01*
X126977068Y-82900990D02*
X126977068Y-83043847D01*
X126977068Y-83043847D02*
X127024687Y-83234323D01*
X127024687Y-83234323D02*
X127072306Y-83329561D01*
X127072306Y-83329561D02*
X127167544Y-83424800D01*
X127167544Y-83424800D02*
X127310401Y-83472419D01*
X127310401Y-83472419D02*
X127548496Y-83472419D01*
X129491353Y-83772419D02*
X128872306Y-83772419D01*
X128872306Y-83772419D02*
X129205639Y-84153371D01*
X129205639Y-84153371D02*
X129062782Y-84153371D01*
X129062782Y-84153371D02*
X128967544Y-84200990D01*
X128967544Y-84200990D02*
X128919925Y-84248609D01*
X128919925Y-84248609D02*
X128872306Y-84343847D01*
X128872306Y-84343847D02*
X128872306Y-84581942D01*
X128872306Y-84581942D02*
X128919925Y-84677180D01*
X128919925Y-84677180D02*
X128967544Y-84724800D01*
X128967544Y-84724800D02*
X129062782Y-84772419D01*
X129062782Y-84772419D02*
X129348496Y-84772419D01*
X129348496Y-84772419D02*
X129443734Y-84724800D01*
X129443734Y-84724800D02*
X129491353Y-84677180D01*
X128586591Y-83772419D02*
X128253258Y-84772419D01*
X128253258Y-84772419D02*
X127919925Y-83772419D01*
X127681829Y-83772419D02*
X127062782Y-83772419D01*
X127062782Y-83772419D02*
X127396115Y-84153371D01*
X127396115Y-84153371D02*
X127253258Y-84153371D01*
X127253258Y-84153371D02*
X127158020Y-84200990D01*
X127158020Y-84200990D02*
X127110401Y-84248609D01*
X127110401Y-84248609D02*
X127062782Y-84343847D01*
X127062782Y-84343847D02*
X127062782Y-84581942D01*
X127062782Y-84581942D02*
X127110401Y-84677180D01*
X127110401Y-84677180D02*
X127158020Y-84724800D01*
X127158020Y-84724800D02*
X127253258Y-84772419D01*
X127253258Y-84772419D02*
X127538972Y-84772419D01*
X127538972Y-84772419D02*
X127634210Y-84724800D01*
X127634210Y-84724800D02*
X127681829Y-84677180D01*
X129443734Y-87424800D02*
X129300877Y-87472419D01*
X129300877Y-87472419D02*
X129062782Y-87472419D01*
X129062782Y-87472419D02*
X128967544Y-87424800D01*
X128967544Y-87424800D02*
X128919925Y-87377180D01*
X128919925Y-87377180D02*
X128872306Y-87281942D01*
X128872306Y-87281942D02*
X128872306Y-87186704D01*
X128872306Y-87186704D02*
X128919925Y-87091466D01*
X128919925Y-87091466D02*
X128967544Y-87043847D01*
X128967544Y-87043847D02*
X129062782Y-86996228D01*
X129062782Y-86996228D02*
X129253258Y-86948609D01*
X129253258Y-86948609D02*
X129348496Y-86900990D01*
X129348496Y-86900990D02*
X129396115Y-86853371D01*
X129396115Y-86853371D02*
X129443734Y-86758133D01*
X129443734Y-86758133D02*
X129443734Y-86662895D01*
X129443734Y-86662895D02*
X129396115Y-86567657D01*
X129396115Y-86567657D02*
X129348496Y-86520038D01*
X129348496Y-86520038D02*
X129253258Y-86472419D01*
X129253258Y-86472419D02*
X129015163Y-86472419D01*
X129015163Y-86472419D02*
X128872306Y-86520038D01*
X127872306Y-87377180D02*
X127919925Y-87424800D01*
X127919925Y-87424800D02*
X128062782Y-87472419D01*
X128062782Y-87472419D02*
X128158020Y-87472419D01*
X128158020Y-87472419D02*
X128300877Y-87424800D01*
X128300877Y-87424800D02*
X128396115Y-87329561D01*
X128396115Y-87329561D02*
X128443734Y-87234323D01*
X128443734Y-87234323D02*
X128491353Y-87043847D01*
X128491353Y-87043847D02*
X128491353Y-86900990D01*
X128491353Y-86900990D02*
X128443734Y-86710514D01*
X128443734Y-86710514D02*
X128396115Y-86615276D01*
X128396115Y-86615276D02*
X128300877Y-86520038D01*
X128300877Y-86520038D02*
X128158020Y-86472419D01*
X128158020Y-86472419D02*
X128062782Y-86472419D01*
X128062782Y-86472419D02*
X127919925Y-86520038D01*
X127919925Y-86520038D02*
X127872306Y-86567657D01*
X126967544Y-87472419D02*
X127443734Y-87472419D01*
X127443734Y-87472419D02*
X127443734Y-86472419D01*
X129543734Y-86024800D02*
X129400877Y-86072419D01*
X129400877Y-86072419D02*
X129162782Y-86072419D01*
X129162782Y-86072419D02*
X129067544Y-86024800D01*
X129067544Y-86024800D02*
X129019925Y-85977180D01*
X129019925Y-85977180D02*
X128972306Y-85881942D01*
X128972306Y-85881942D02*
X128972306Y-85786704D01*
X128972306Y-85786704D02*
X129019925Y-85691466D01*
X129019925Y-85691466D02*
X129067544Y-85643847D01*
X129067544Y-85643847D02*
X129162782Y-85596228D01*
X129162782Y-85596228D02*
X129353258Y-85548609D01*
X129353258Y-85548609D02*
X129448496Y-85500990D01*
X129448496Y-85500990D02*
X129496115Y-85453371D01*
X129496115Y-85453371D02*
X129543734Y-85358133D01*
X129543734Y-85358133D02*
X129543734Y-85262895D01*
X129543734Y-85262895D02*
X129496115Y-85167657D01*
X129496115Y-85167657D02*
X129448496Y-85120038D01*
X129448496Y-85120038D02*
X129353258Y-85072419D01*
X129353258Y-85072419D02*
X129115163Y-85072419D01*
X129115163Y-85072419D02*
X128972306Y-85120038D01*
X128543734Y-86072419D02*
X128543734Y-85072419D01*
X128543734Y-85072419D02*
X128305639Y-85072419D01*
X128305639Y-85072419D02*
X128162782Y-85120038D01*
X128162782Y-85120038D02*
X128067544Y-85215276D01*
X128067544Y-85215276D02*
X128019925Y-85310514D01*
X128019925Y-85310514D02*
X127972306Y-85500990D01*
X127972306Y-85500990D02*
X127972306Y-85643847D01*
X127972306Y-85643847D02*
X128019925Y-85834323D01*
X128019925Y-85834323D02*
X128067544Y-85929561D01*
X128067544Y-85929561D02*
X128162782Y-86024800D01*
X128162782Y-86024800D02*
X128305639Y-86072419D01*
X128305639Y-86072419D02*
X128543734Y-86072419D01*
X127591353Y-85786704D02*
X127115163Y-85786704D01*
X127686591Y-86072419D02*
X127353258Y-85072419D01*
X127353258Y-85072419D02*
X127019925Y-86072419D01*
M02*
