%TF.GenerationSoftware,KiCad,Pcbnew,8.0.2*%
%TF.CreationDate,2024-07-08T22:06:34-05:00*%
%TF.ProjectId,RGBPS Breakout,52474250-5320-4427-9265-616b6f75742e,rev?*%
%TF.SameCoordinates,Original*%
%TF.FileFunction,Copper,L1,Top*%
%TF.FilePolarity,Positive*%
%FSLAX46Y46*%
G04 Gerber Fmt 4.6, Leading zero omitted, Abs format (unit mm)*
G04 Created by KiCad (PCBNEW 8.0.2) date 2024-07-08 22:06:34*
%MOMM*%
%LPD*%
G01*
G04 APERTURE LIST*
G04 Aperture macros list*
%AMRoundRect*
0 Rectangle with rounded corners*
0 $1 Rounding radius*
0 $2 $3 $4 $5 $6 $7 $8 $9 X,Y pos of 4 corners*
0 Add a 4 corners polygon primitive as box body*
4,1,4,$2,$3,$4,$5,$6,$7,$8,$9,$2,$3,0*
0 Add four circle primitives for the rounded corners*
1,1,$1+$1,$2,$3*
1,1,$1+$1,$4,$5*
1,1,$1+$1,$6,$7*
1,1,$1+$1,$8,$9*
0 Add four rect primitives between the rounded corners*
20,1,$1+$1,$2,$3,$4,$5,0*
20,1,$1+$1,$4,$5,$6,$7,0*
20,1,$1+$1,$6,$7,$8,$9,0*
20,1,$1+$1,$8,$9,$2,$3,0*%
G04 Aperture macros list end*
%TA.AperFunction,ComponentPad*%
%ADD10O,1.750000X1.200000*%
%TD*%
%TA.AperFunction,ComponentPad*%
%ADD11RoundRect,0.250000X-0.625000X0.350000X-0.625000X-0.350000X0.625000X-0.350000X0.625000X0.350000X0*%
%TD*%
%TA.AperFunction,SMDPad,CuDef*%
%ADD12R,0.570000X0.300000*%
%TD*%
%TA.AperFunction,SMDPad,CuDef*%
%ADD13R,0.520000X0.300000*%
%TD*%
%TA.AperFunction,SMDPad,CuDef*%
%ADD14RoundRect,0.135000X0.135000X0.185000X-0.135000X0.185000X-0.135000X-0.185000X0.135000X-0.185000X0*%
%TD*%
%TA.AperFunction,SMDPad,CuDef*%
%ADD15RoundRect,0.135000X-0.135000X-0.185000X0.135000X-0.185000X0.135000X0.185000X-0.135000X0.185000X0*%
%TD*%
%TA.AperFunction,SMDPad,CuDef*%
%ADD16RoundRect,0.250000X0.625000X-0.375000X0.625000X0.375000X-0.625000X0.375000X-0.625000X-0.375000X0*%
%TD*%
%TA.AperFunction,SMDPad,CuDef*%
%ADD17RoundRect,0.135000X-0.185000X0.135000X-0.185000X-0.135000X0.185000X-0.135000X0.185000X0.135000X0*%
%TD*%
%TA.AperFunction,SMDPad,CuDef*%
%ADD18RoundRect,0.140000X-0.170000X0.140000X-0.170000X-0.140000X0.170000X-0.140000X0.170000X0.140000X0*%
%TD*%
%TA.AperFunction,ComponentPad*%
%ADD19R,1.700000X1.700000*%
%TD*%
%TA.AperFunction,SMDPad,CuDef*%
%ADD20RoundRect,0.140000X0.170000X-0.140000X0.170000X0.140000X-0.170000X0.140000X-0.170000X-0.140000X0*%
%TD*%
%TA.AperFunction,ViaPad*%
%ADD21C,0.600000*%
%TD*%
%TA.AperFunction,Conductor*%
%ADD22C,0.200000*%
%TD*%
G04 APERTURE END LIST*
D10*
%TO.P,J1,4,Pin_4*%
%TO.N,SCL*%
X131000000Y-88000000D03*
%TO.P,J1,3,Pin_3*%
%TO.N,SDA*%
X131000000Y-86000000D03*
%TO.P,J1,2,Pin_2*%
%TO.N,+3.3V*%
X131000000Y-84000000D03*
D11*
%TO.P,J1,1,Pin_1*%
%TO.N,GND*%
X131000000Y-82000000D03*
%TD*%
D12*
%TO.P,IC1,6,SCL*%
%TO.N,SCL*%
X139040000Y-85960000D03*
D13*
%TO.P,IC1,5,SDA*%
%TO.N,SDA*%
X139985000Y-85960000D03*
D12*
%TO.P,IC1,4,VDD*%
%TO.N,Net-(IC1-VDD)*%
X140930000Y-85960000D03*
%TO.P,IC1,3,VVCSEL*%
%TO.N,+3.3V*%
X140930000Y-84980000D03*
D13*
%TO.P,IC1,2,INT*%
%TO.N,INT*%
X139985000Y-84980000D03*
D12*
%TO.P,IC1,1,GND*%
%TO.N,GND*%
X139040000Y-84980000D03*
%TD*%
D14*
%TO.P,R3,2*%
%TO.N,+3.3V*%
X137250000Y-83090000D03*
%TO.P,R3,1*%
%TO.N,INT*%
X138270000Y-83090000D03*
%TD*%
D15*
%TO.P,R5,1*%
%TO.N,SDA*%
X140000000Y-87980000D03*
%TO.P,R5,2*%
%TO.N,+3.3V*%
X141020000Y-87980000D03*
%TD*%
D16*
%TO.P,D1,1,K*%
%TO.N,Net-(D1-K)*%
X145000000Y-86000000D03*
%TO.P,D1,2,A*%
%TO.N,+3.3V*%
X145000000Y-83200000D03*
%TD*%
D14*
%TO.P,R4,2*%
%TO.N,+3.3V*%
X138010000Y-87970000D03*
%TO.P,R4,1*%
%TO.N,SCL*%
X139030000Y-87970000D03*
%TD*%
D17*
%TO.P,R2,1*%
%TO.N,Net-(IC1-VDD)*%
X143140000Y-87000000D03*
%TO.P,R2,2*%
%TO.N,+3.3V*%
X143140000Y-88020000D03*
%TD*%
D18*
%TO.P,C2,1*%
%TO.N,GND*%
X140920000Y-82120000D03*
%TO.P,C2,2*%
%TO.N,+3.3V*%
X140920000Y-83080000D03*
%TD*%
D19*
%TO.P,J2,1,Pin_1*%
%TO.N,INT*%
X134950000Y-82700000D03*
%TD*%
D14*
%TO.P,R1,2*%
%TO.N,GND*%
X144540000Y-87540000D03*
%TO.P,R1,1*%
%TO.N,Net-(D1-K)*%
X145560000Y-87540000D03*
%TD*%
D20*
%TO.P,C1,2*%
%TO.N,GND*%
X143140000Y-85020000D03*
%TO.P,C1,1*%
%TO.N,Net-(IC1-VDD)*%
X143140000Y-85980000D03*
%TD*%
D21*
%TO.N,GND*%
X139040000Y-83420000D03*
X140920000Y-81470000D03*
X143130000Y-84340000D03*
%TD*%
D22*
%TO.N,+3.3V*%
X141040000Y-83200000D02*
X145000000Y-83200000D01*
X140920000Y-83080000D02*
X141040000Y-83200000D01*
%TO.N,INT*%
X135180000Y-82470000D02*
X134950000Y-82700000D01*
X137650000Y-82470000D02*
X135180000Y-82470000D01*
X138270000Y-83090000D02*
X137650000Y-82470000D01*
%TO.N,+3.3V*%
X139160000Y-81320000D02*
X140920000Y-83080000D01*
X131000000Y-84000000D02*
X133680000Y-81320000D01*
X136340000Y-84000000D02*
X137250000Y-83090000D01*
%TO.N,SCL*%
X133040000Y-85960000D02*
X131000000Y-88000000D01*
X139040000Y-85960000D02*
X133040000Y-85960000D01*
%TO.N,SDA*%
X131490000Y-85510000D02*
X131000000Y-86000000D01*
X139535000Y-85510000D02*
X131490000Y-85510000D01*
X139985000Y-85960000D02*
X139535000Y-85510000D01*
%TO.N,+3.3V*%
X138640000Y-88600000D02*
X138010000Y-87970000D01*
X140400000Y-88600000D02*
X138640000Y-88600000D01*
X141020000Y-87980000D02*
X140400000Y-88600000D01*
%TO.N,SCL*%
X139040000Y-87960000D02*
X139030000Y-87970000D01*
X139040000Y-85960000D02*
X139040000Y-87960000D01*
%TO.N,SDA*%
X139985000Y-87965000D02*
X140000000Y-87980000D01*
X139985000Y-85960000D02*
X139985000Y-87965000D01*
%TO.N,INT*%
X139288529Y-82820000D02*
X138540000Y-82820000D01*
X139985000Y-83516471D02*
X139288529Y-82820000D01*
X138540000Y-82820000D02*
X138270000Y-83090000D01*
X139985000Y-84980000D02*
X139985000Y-83516471D01*
%TO.N,GND*%
X139040000Y-84980000D02*
X139040000Y-83420000D01*
X140920000Y-82120000D02*
X140920000Y-81470000D01*
%TO.N,+3.3V*%
X140930000Y-84980000D02*
X140930000Y-83090000D01*
X140930000Y-83090000D02*
X140920000Y-83080000D01*
X143280000Y-88160000D02*
X143140000Y-88020000D01*
X145920000Y-88160000D02*
X143280000Y-88160000D01*
X146175000Y-84375000D02*
X146175000Y-87905000D01*
X146175000Y-87905000D02*
X145920000Y-88160000D01*
X145000000Y-83200000D02*
X146175000Y-84375000D01*
%TO.N,GND*%
X143825000Y-86825000D02*
X143825000Y-85035000D01*
X143825000Y-85035000D02*
X143130000Y-84340000D01*
X144540000Y-87540000D02*
X143825000Y-86825000D01*
%TO.N,Net-(D1-K)*%
X145000000Y-86980000D02*
X145560000Y-87540000D01*
X145000000Y-86000000D02*
X145000000Y-86980000D01*
%TO.N,+3.3V*%
X141060000Y-88020000D02*
X141020000Y-87980000D01*
X143140000Y-88020000D02*
X141060000Y-88020000D01*
%TO.N,Net-(IC1-VDD)*%
X143140000Y-85980000D02*
X143140000Y-87000000D01*
%TO.N,GND*%
X143140000Y-84350000D02*
X143130000Y-84340000D01*
X143140000Y-85020000D02*
X143140000Y-84350000D01*
%TO.N,Net-(IC1-VDD)*%
X143120000Y-85960000D02*
X143140000Y-85980000D01*
X140930000Y-85960000D02*
X143120000Y-85960000D01*
%TO.N,+3.3V*%
X133680000Y-81320000D02*
X139160000Y-81320000D01*
X131000000Y-84000000D02*
X136340000Y-84000000D01*
%TD*%
M02*
