%TF.GenerationSoftware,KiCad,Pcbnew,8.0.2*%
%TF.CreationDate,2024-07-08T22:06:34-05:00*%
%TF.ProjectId,RGBPS Breakout,52474250-5320-4427-9265-616b6f75742e,rev?*%
%TF.SameCoordinates,Original*%
%TF.FileFunction,Copper,L2,Bot*%
%TF.FilePolarity,Positive*%
%FSLAX46Y46*%
G04 Gerber Fmt 4.6, Leading zero omitted, Abs format (unit mm)*
G04 Created by KiCad (PCBNEW 8.0.2) date 2024-07-08 22:06:34*
%MOMM*%
%LPD*%
G01*
G04 APERTURE LIST*
G04 Aperture macros list*
%AMRoundRect*
0 Rectangle with rounded corners*
0 $1 Rounding radius*
0 $2 $3 $4 $5 $6 $7 $8 $9 X,Y pos of 4 corners*
0 Add a 4 corners polygon primitive as box body*
4,1,4,$2,$3,$4,$5,$6,$7,$8,$9,$2,$3,0*
0 Add four circle primitives for the rounded corners*
1,1,$1+$1,$2,$3*
1,1,$1+$1,$4,$5*
1,1,$1+$1,$6,$7*
1,1,$1+$1,$8,$9*
0 Add four rect primitives between the rounded corners*
20,1,$1+$1,$2,$3,$4,$5,0*
20,1,$1+$1,$4,$5,$6,$7,0*
20,1,$1+$1,$6,$7,$8,$9,0*
20,1,$1+$1,$8,$9,$2,$3,0*%
G04 Aperture macros list end*
%TA.AperFunction,ComponentPad*%
%ADD10O,1.750000X1.200000*%
%TD*%
%TA.AperFunction,ComponentPad*%
%ADD11RoundRect,0.250000X-0.625000X0.350000X-0.625000X-0.350000X0.625000X-0.350000X0.625000X0.350000X0*%
%TD*%
%TA.AperFunction,ComponentPad*%
%ADD12R,1.700000X1.700000*%
%TD*%
%TA.AperFunction,ViaPad*%
%ADD13C,0.600000*%
%TD*%
G04 APERTURE END LIST*
D10*
%TO.P,J1,4,Pin_4*%
%TO.N,SCL*%
X131000000Y-88000000D03*
%TO.P,J1,3,Pin_3*%
%TO.N,SDA*%
X131000000Y-86000000D03*
%TO.P,J1,2,Pin_2*%
%TO.N,+3.3V*%
X131000000Y-84000000D03*
D11*
%TO.P,J1,1,Pin_1*%
%TO.N,GND*%
X131000000Y-82000000D03*
%TD*%
D12*
%TO.P,J2,1,Pin_1*%
%TO.N,INT*%
X134950000Y-82700000D03*
%TD*%
D13*
%TO.N,GND*%
X139040000Y-83420000D03*
X140920000Y-81470000D03*
X143130000Y-84340000D03*
%TD*%
%TA.AperFunction,Conductor*%
%TO.N,GND*%
G36*
X149003472Y-80300695D02*
G01*
X149295306Y-80317084D01*
X149309103Y-80318638D01*
X149593827Y-80367015D01*
X149607384Y-80370109D01*
X149884899Y-80450060D01*
X149898025Y-80454653D01*
X150164841Y-80565172D01*
X150177355Y-80571198D01*
X150377541Y-80681836D01*
X150430125Y-80710899D01*
X150441899Y-80718297D01*
X150677430Y-80885415D01*
X150688302Y-80894085D01*
X150903642Y-81086524D01*
X150913475Y-81096357D01*
X151105914Y-81311697D01*
X151114584Y-81322569D01*
X151281702Y-81558100D01*
X151289100Y-81569874D01*
X151428797Y-81822637D01*
X151434830Y-81835165D01*
X151545346Y-82101975D01*
X151549939Y-82115100D01*
X151629890Y-82392615D01*
X151632984Y-82406172D01*
X151681359Y-82690885D01*
X151682916Y-82704703D01*
X151699305Y-82996527D01*
X151699500Y-83003480D01*
X151699500Y-86996519D01*
X151699305Y-87003472D01*
X151682916Y-87295296D01*
X151681359Y-87309114D01*
X151632984Y-87593827D01*
X151629890Y-87607384D01*
X151549939Y-87884899D01*
X151545346Y-87898024D01*
X151434830Y-88164834D01*
X151428797Y-88177362D01*
X151289100Y-88430125D01*
X151281702Y-88441899D01*
X151114584Y-88677430D01*
X151105914Y-88688302D01*
X150913475Y-88903642D01*
X150903642Y-88913475D01*
X150688302Y-89105914D01*
X150677430Y-89114584D01*
X150441899Y-89281702D01*
X150430125Y-89289100D01*
X150177362Y-89428797D01*
X150164834Y-89434830D01*
X149898024Y-89545346D01*
X149884899Y-89549939D01*
X149607384Y-89629890D01*
X149593827Y-89632984D01*
X149309114Y-89681359D01*
X149295296Y-89682916D01*
X149003472Y-89699305D01*
X148996519Y-89699500D01*
X130003481Y-89699500D01*
X129996528Y-89699305D01*
X129704703Y-89682916D01*
X129690885Y-89681359D01*
X129406172Y-89632984D01*
X129392615Y-89629890D01*
X129115100Y-89549939D01*
X129101975Y-89545346D01*
X128835165Y-89434830D01*
X128822637Y-89428797D01*
X128569874Y-89289100D01*
X128558100Y-89281702D01*
X128322569Y-89114584D01*
X128311697Y-89105914D01*
X128096357Y-88913475D01*
X128086524Y-88903642D01*
X127894085Y-88688302D01*
X127885415Y-88677430D01*
X127718297Y-88441899D01*
X127710899Y-88430125D01*
X127571202Y-88177362D01*
X127565172Y-88164841D01*
X127454653Y-87898024D01*
X127450060Y-87884899D01*
X127370109Y-87607384D01*
X127367015Y-87593827D01*
X127358486Y-87543631D01*
X127318638Y-87309103D01*
X127317084Y-87295306D01*
X127300695Y-87003472D01*
X127300500Y-86996519D01*
X127300500Y-83913389D01*
X129624500Y-83913389D01*
X129624500Y-84086610D01*
X129647775Y-84233567D01*
X129651598Y-84257701D01*
X129705127Y-84422445D01*
X129783768Y-84576788D01*
X129885586Y-84716928D01*
X130008072Y-84839414D01*
X130008078Y-84839418D01*
X130091023Y-84899683D01*
X130133689Y-84955013D01*
X130139667Y-85024626D01*
X130107061Y-85086421D01*
X130091023Y-85100317D01*
X130008078Y-85160581D01*
X130008069Y-85160588D01*
X129885588Y-85283069D01*
X129885588Y-85283070D01*
X129885586Y-85283072D01*
X129841859Y-85343256D01*
X129783768Y-85423211D01*
X129705128Y-85577552D01*
X129651597Y-85742302D01*
X129641440Y-85806433D01*
X129624500Y-85913389D01*
X129624500Y-86086611D01*
X129651598Y-86257701D01*
X129705127Y-86422445D01*
X129783768Y-86576788D01*
X129885586Y-86716928D01*
X130008072Y-86839414D01*
X130008078Y-86839418D01*
X130091023Y-86899683D01*
X130133689Y-86955013D01*
X130139667Y-87024626D01*
X130107061Y-87086421D01*
X130091023Y-87100317D01*
X130008078Y-87160581D01*
X130008069Y-87160588D01*
X129885588Y-87283069D01*
X129885588Y-87283070D01*
X129885586Y-87283072D01*
X129841859Y-87343256D01*
X129783768Y-87423211D01*
X129705128Y-87577552D01*
X129651597Y-87742302D01*
X129624500Y-87913389D01*
X129624500Y-88086610D01*
X129638873Y-88177362D01*
X129651598Y-88257701D01*
X129705127Y-88422445D01*
X129783768Y-88576788D01*
X129885586Y-88716928D01*
X130008072Y-88839414D01*
X130148212Y-88941232D01*
X130302555Y-89019873D01*
X130467299Y-89073402D01*
X130638389Y-89100500D01*
X130638390Y-89100500D01*
X131361610Y-89100500D01*
X131361611Y-89100500D01*
X131532701Y-89073402D01*
X131697445Y-89019873D01*
X131851788Y-88941232D01*
X131991928Y-88839414D01*
X132114414Y-88716928D01*
X132216232Y-88576788D01*
X132294873Y-88422445D01*
X132348402Y-88257701D01*
X132375500Y-88086611D01*
X132375500Y-87913389D01*
X132348402Y-87742299D01*
X132294873Y-87577555D01*
X132216232Y-87423212D01*
X132114414Y-87283072D01*
X131991928Y-87160586D01*
X131908975Y-87100317D01*
X131866311Y-87044988D01*
X131860332Y-86975374D01*
X131892938Y-86913579D01*
X131908976Y-86899682D01*
X131991928Y-86839414D01*
X132114414Y-86716928D01*
X132216232Y-86576788D01*
X132294873Y-86422445D01*
X132348402Y-86257701D01*
X132375500Y-86086611D01*
X132375500Y-85913389D01*
X132348402Y-85742299D01*
X132294873Y-85577555D01*
X132216232Y-85423212D01*
X132114414Y-85283072D01*
X131991928Y-85160586D01*
X131908975Y-85100317D01*
X131866311Y-85044988D01*
X131860332Y-84975374D01*
X131892938Y-84913579D01*
X131906414Y-84901902D01*
X147729500Y-84901902D01*
X147729500Y-85138097D01*
X147766446Y-85371368D01*
X147839433Y-85595996D01*
X147946657Y-85806433D01*
X148085483Y-85997510D01*
X148252490Y-86164517D01*
X148443567Y-86303343D01*
X148542991Y-86354002D01*
X148654003Y-86410566D01*
X148654005Y-86410566D01*
X148654008Y-86410568D01*
X148690562Y-86422445D01*
X148878631Y-86483553D01*
X149111903Y-86520500D01*
X149111908Y-86520500D01*
X149348097Y-86520500D01*
X149581368Y-86483553D01*
X149805992Y-86410568D01*
X150016433Y-86303343D01*
X150207510Y-86164517D01*
X150374517Y-85997510D01*
X150513343Y-85806433D01*
X150620568Y-85595992D01*
X150693553Y-85371368D01*
X150707538Y-85283069D01*
X150730500Y-85138097D01*
X150730500Y-84901902D01*
X150693553Y-84668631D01*
X150620566Y-84444003D01*
X150525640Y-84257701D01*
X150513343Y-84233567D01*
X150374517Y-84042490D01*
X150207510Y-83875483D01*
X150016433Y-83736657D01*
X149805996Y-83629433D01*
X149581368Y-83556446D01*
X149348097Y-83519500D01*
X149348092Y-83519500D01*
X149111908Y-83519500D01*
X149111903Y-83519500D01*
X148878631Y-83556446D01*
X148654003Y-83629433D01*
X148443566Y-83736657D01*
X148366933Y-83792335D01*
X148252490Y-83875483D01*
X148252488Y-83875485D01*
X148252487Y-83875485D01*
X148085485Y-84042487D01*
X148085485Y-84042488D01*
X148085483Y-84042490D01*
X148053428Y-84086610D01*
X147946657Y-84233566D01*
X147839433Y-84444003D01*
X147766446Y-84668631D01*
X147729500Y-84901902D01*
X131906414Y-84901902D01*
X131908976Y-84899682D01*
X131991928Y-84839414D01*
X132114414Y-84716928D01*
X132216232Y-84576788D01*
X132294873Y-84422445D01*
X132348402Y-84257701D01*
X132375500Y-84086611D01*
X132375500Y-83913389D01*
X132348402Y-83742299D01*
X132294873Y-83577555D01*
X132216232Y-83423212D01*
X132114414Y-83283072D01*
X132006508Y-83175166D01*
X131973023Y-83113843D01*
X131978007Y-83044151D01*
X132019879Y-82988218D01*
X132029094Y-82981945D01*
X132093345Y-82942315D01*
X132217315Y-82818345D01*
X132309356Y-82669124D01*
X132309358Y-82669119D01*
X132364505Y-82502697D01*
X132364506Y-82502690D01*
X132374999Y-82399986D01*
X132375000Y-82399973D01*
X132375000Y-82250000D01*
X131280330Y-82250000D01*
X131300075Y-82230255D01*
X131349444Y-82144745D01*
X131375000Y-82049370D01*
X131375000Y-81950630D01*
X131349444Y-81855255D01*
X131318775Y-81802135D01*
X133599500Y-81802135D01*
X133599500Y-83597870D01*
X133599501Y-83597876D01*
X133605908Y-83657483D01*
X133656202Y-83792328D01*
X133656206Y-83792335D01*
X133742452Y-83907544D01*
X133742455Y-83907547D01*
X133857664Y-83993793D01*
X133857671Y-83993797D01*
X133992517Y-84044091D01*
X133992516Y-84044091D01*
X133999444Y-84044835D01*
X134052127Y-84050500D01*
X135847872Y-84050499D01*
X135907483Y-84044091D01*
X136042331Y-83993796D01*
X136157546Y-83907546D01*
X136243796Y-83792331D01*
X136294091Y-83657483D01*
X136300500Y-83597873D01*
X136300499Y-81802128D01*
X136294091Y-81742517D01*
X136278205Y-81699925D01*
X136243797Y-81607671D01*
X136243793Y-81607664D01*
X136157547Y-81492455D01*
X136157544Y-81492452D01*
X136042335Y-81406206D01*
X136042328Y-81406202D01*
X135907482Y-81355908D01*
X135907483Y-81355908D01*
X135847883Y-81349501D01*
X135847881Y-81349500D01*
X135847873Y-81349500D01*
X135847864Y-81349500D01*
X134052129Y-81349500D01*
X134052123Y-81349501D01*
X133992516Y-81355908D01*
X133857671Y-81406202D01*
X133857664Y-81406206D01*
X133742455Y-81492452D01*
X133742452Y-81492455D01*
X133656206Y-81607664D01*
X133656202Y-81607671D01*
X133605908Y-81742517D01*
X133599501Y-81802116D01*
X133599501Y-81802123D01*
X133599500Y-81802135D01*
X131318775Y-81802135D01*
X131300075Y-81769745D01*
X131280330Y-81750000D01*
X132374999Y-81750000D01*
X132374999Y-81600028D01*
X132374998Y-81600013D01*
X132364505Y-81497302D01*
X132309358Y-81330880D01*
X132309356Y-81330875D01*
X132217315Y-81181654D01*
X132093345Y-81057684D01*
X131944124Y-80965643D01*
X131944119Y-80965641D01*
X131777697Y-80910494D01*
X131777690Y-80910493D01*
X131674986Y-80900000D01*
X131250000Y-80900000D01*
X131250000Y-81719670D01*
X131230255Y-81699925D01*
X131144745Y-81650556D01*
X131049370Y-81625000D01*
X130950630Y-81625000D01*
X130855255Y-81650556D01*
X130769745Y-81699925D01*
X130750000Y-81719670D01*
X130750000Y-80900000D01*
X130325028Y-80900000D01*
X130325012Y-80900001D01*
X130222302Y-80910494D01*
X130055880Y-80965641D01*
X130055875Y-80965643D01*
X129906654Y-81057684D01*
X129782684Y-81181654D01*
X129690643Y-81330875D01*
X129690641Y-81330880D01*
X129635494Y-81497302D01*
X129635493Y-81497309D01*
X129625000Y-81600013D01*
X129625000Y-81750000D01*
X130719670Y-81750000D01*
X130699925Y-81769745D01*
X130650556Y-81855255D01*
X130625000Y-81950630D01*
X130625000Y-82049370D01*
X130650556Y-82144745D01*
X130699925Y-82230255D01*
X130719670Y-82250000D01*
X129625001Y-82250000D01*
X129625001Y-82399986D01*
X129635494Y-82502697D01*
X129690641Y-82669119D01*
X129690643Y-82669124D01*
X129782684Y-82818345D01*
X129906656Y-82942317D01*
X129970906Y-82981946D01*
X130017631Y-83033893D01*
X130028854Y-83102856D01*
X130001011Y-83166938D01*
X129993492Y-83175166D01*
X129885585Y-83283073D01*
X129783768Y-83423211D01*
X129705128Y-83577552D01*
X129651597Y-83742302D01*
X129624500Y-83913389D01*
X127300500Y-83913389D01*
X127300500Y-83003480D01*
X127300695Y-82996527D01*
X127303739Y-82942317D01*
X127317084Y-82704691D01*
X127318638Y-82690898D01*
X127367015Y-82406167D01*
X127370109Y-82392615D01*
X127382547Y-82349444D01*
X127450061Y-82115096D01*
X127454653Y-82101975D01*
X127476443Y-82049370D01*
X127565175Y-81835151D01*
X127571195Y-81822651D01*
X127710902Y-81569868D01*
X127718297Y-81558100D01*
X127885422Y-81322559D01*
X127894077Y-81311705D01*
X128086534Y-81096346D01*
X128096346Y-81086534D01*
X128311705Y-80894077D01*
X128322559Y-80885422D01*
X128558105Y-80718293D01*
X128569868Y-80710902D01*
X128822651Y-80571195D01*
X128835151Y-80565175D01*
X129101979Y-80454651D01*
X129115096Y-80450061D01*
X129392621Y-80370107D01*
X129406167Y-80367015D01*
X129690898Y-80318638D01*
X129704691Y-80317084D01*
X129996528Y-80300695D01*
X130003481Y-80300500D01*
X130065892Y-80300500D01*
X148934108Y-80300500D01*
X148996519Y-80300500D01*
X149003472Y-80300695D01*
G37*
%TD.AperFunction*%
%TD*%
M02*
